<svg width="32" height="32" viewBox="0 0 32 32" fill="none" xmlns="http://www.w3.org/2000/svg">
<g clip-path="url(#clip0_1_14)">
<path d="M21.5 0C27.29 0 32 4.71 32 10.5C32 16.29 27.29 21 21.5 21C18.775 21 16.297 19.948 14.429 18.24C14.407 18.279 14.387 18.32 14.353 18.354L12.202 20.505C12.382 20.809 12.484 21.153 12.484 21.516C12.484 22.05 12.276 22.552 11.898 22.93L3.413 31.415C3.036 31.792 2.534 32 2 32C1.466 32 0.964 31.792 0.586 31.414C0.208 31.036 0 30.534 0 30C0 29.466 0.208 28.964 0.586 28.586L9.071 20.101C9.705 19.467 10.73 19.372 11.491 19.802L13.646 17.647C13.68 17.613 13.72 17.593 13.76 17.571C12.052 15.703 11 13.225 11 10.5C11 4.71 15.71 0 21.5 0ZM9.778 20.808L1.293 29.293C1.104 29.482 1 29.733 1 30C1 30.267 1.104 30.518 1.293 30.707C1.672 31.084 2.328 31.084 2.707 30.707L11.192 22.222C11.38 22.033 11.485 21.782 11.485 21.515C11.485 21.248 11.381 20.997 11.192 20.808C11.003 20.62 10.752 20.515 10.485 20.515C10.218 20.515 9.968 20.619 9.778 20.808ZM21.5 20C26.738 20 31 15.738 31 10.5C31 5.262 26.738 1 21.5 1C16.262 1 12 5.262 12 10.5C12 15.738 16.262 20 21.5 20Z" fill="#DCDCDC"/>
<path d="M21.5 3C25.636 3 29 6.364 29 10.5C29 14.636 25.636 18 21.5 18C17.364 18 14 14.636 14 10.5C14 6.364 17.364 3 21.5 3ZM21.5 17C25.084 17 28 14.084 28 10.5C28 6.916 25.084 4 21.5 4C17.916 4 15 6.916 15 10.5C15 14.084 17.916 17 21.5 17Z" fill="#DCDCDC"/>
<path fill-rule="evenodd" clip-rule="evenodd" d="M19.0231 8.16002C18.9397 8.15899 18.8664 8.22731 18.8455 8.3256L18.3259 10.7749L18.137 9.04246C18.1262 8.94322 18.0619 8.86526 17.9802 8.85252C17.8986 8.83977 17.8201 8.89544 17.7891 8.98814L17.4458 10.0124H16.5815C16.4813 10.0124 16.4 10.1112 16.4 10.2331C16.4 10.3551 16.4813 10.4539 16.5815 10.4539H17.5678C17.6416 10.4539 17.708 10.3996 17.7359 10.3165L17.8671 9.92494L18.0887 11.9575C18.1001 12.0623 18.1709 12.1425 18.2576 12.1489C18.3444 12.1553 18.4226 12.086 18.4443 11.9837L19.0136 9.30027L19.26 10.5665C19.2793 10.6661 19.3524 10.7365 19.4366 10.7365H20.2755L20.6086 12.6646C20.6259 12.7647 20.6974 12.8372 20.7814 12.8399C20.8654 12.8427 20.9399 12.7749 20.9616 12.6762L21.483 10.3005L21.6179 11.9504C21.6258 12.047 21.6847 12.1261 21.763 12.145C21.8414 12.164 21.9207 12.1185 21.9584 12.0329L22.53 10.7365H23.9009C23.9666 10.7365 24.0272 10.6932 24.0593 10.6234L24.1861 10.3472L24.422 12.3677C24.4341 12.4714 24.5044 12.5505 24.5903 12.557C24.6762 12.5636 24.7541 12.4958 24.7768 12.3948L25.4128 9.55764L25.6442 10.8454C25.6625 10.9468 25.7362 11.019 25.8215 11.019H26.6V10.5775H25.9676L25.6095 8.58479C25.5917 8.48548 25.5204 8.41384 25.4368 8.41125C25.3533 8.40865 25.2791 8.47578 25.2571 8.57385L24.6578 11.2471L24.4699 9.63698C24.4589 9.54318 24.4 9.46834 24.3234 9.45098C24.2469 9.43363 24.1697 9.47764 24.1317 9.56034L23.7944 10.2949H22.4214C22.3545 10.2949 22.2931 10.3397 22.2615 10.4114L21.9201 11.1855L21.7455 9.04963C21.7368 8.94348 21.667 8.86006 21.5796 8.85144C21.4921 8.84282 21.4122 8.91147 21.3895 9.01454L20.8073 11.6675L20.6005 10.4703C20.5828 10.3681 20.5087 10.2949 20.4229 10.2949H19.5801L19.1979 8.32993C19.1787 8.23115 19.1066 8.16104 19.0231 8.16002Z" fill="#DCDCDC"/>
</g>
<defs>
<clipPath id="clip0_1_14">
<rect width="32" height="32" fill="white" transform="matrix(-1 0 0 1 32 0)"/>
</clipPath>
</defs>
</svg>
