<svg width="128" height="128" viewBox="0 0 128 128" fill="none" xmlns="http://www.w3.org/2000/svg">
<g clip-path="url(#clip0_1_14)">
<path d="M86 0C109.16 0 128 18.84 128 42C128 65.16 109.16 84 86 84C75.1 84 65.188 79.792 57.716 72.96C57.628 73.116 57.548 73.28 57.412 73.416L48.808 82.02C49.528 83.236 49.936 84.612 49.936 86.064C49.936 88.2 49.104 90.208 47.592 91.72L13.652 125.66C12.144 127.168 10.136 128 8 128C5.864 128 3.856 127.168 2.344 125.656C0.832002 124.144 0 122.136 0 120C0 117.864 0.832002 115.856 2.344 114.344L36.284 80.404C38.82 77.868 42.92 77.488 45.964 79.208L54.584 70.588C54.72 70.452 54.88 70.372 55.04 70.284C48.208 62.812 44 52.9 44 42C44 18.84 62.84 0 86 0ZM39.112 83.232L5.172 117.172C4.416 117.928 4 118.932 4 120C4 121.068 4.416 122.072 5.172 122.828C6.688 124.336 9.312 124.336 10.828 122.828L44.768 88.888C45.52 88.132 45.94 87.128 45.94 86.06C45.94 84.992 45.524 83.988 44.768 83.232C44.012 82.48 43.008 82.06 41.94 82.06C40.872 82.06 39.872 82.476 39.112 83.232ZM86 80C106.952 80 124 62.952 124 42C124 21.048 106.952 4 86 4C65.048 4 48 21.048 48 42C48 62.952 65.048 80 86 80Z" fill="#FAFAFA"/>
<path d="M86 12C102.544 12 116 25.456 116 42C116 58.544 102.544 72 86 72C69.456 72 56 58.544 56 42C56 25.456 69.456 12 86 12ZM86 68C100.336 68 112 56.336 112 42C112 27.664 100.336 16 86 16C71.664 16 60 27.664 60 42C60 56.336 71.664 68 86 68Z" fill="#FAFAFA"/>
<path fill-rule="evenodd" clip-rule="evenodd" d="M80.8499 32C80.4411 31.9957 80.0822 32.2876 79.98 32.7077L77.4344 43.1747L76.5093 35.7712C76.4563 35.3471 76.1409 35.0139 75.741 34.9595C75.3411 34.905 74.9568 35.1429 74.8046 35.5391L73.123 39.9161H68.8891C68.3981 39.9161 68 40.8595 68 40.8595C68 40.8595 68.3981 41.8029 68.8891 41.8029H73.7207C74.0821 41.8029 74.4076 41.5708 74.544 41.2157L75.1868 39.5425L76.2723 48.2288C76.3282 48.6765 76.6752 49.0193 77.1 49.0465C77.5248 49.0737 77.9082 48.7778 78.0145 48.3405L80.8035 36.8729L82.0101 42.2843C82.105 42.7099 82.4631 43.0105 82.8753 43.0105H86.9851L88.6168 51.2506C88.7014 51.678 89.0515 51.9879 89.463 51.9997C89.8745 52.0114 90.2397 51.7219 90.3459 51.2999L92.9001 41.1476L93.5609 48.1982C93.5996 48.6113 93.8883 48.949 94.272 49.03C94.6557 49.1111 95.0443 48.9165 95.2292 48.5507L98.0292 43.0105H104V41.1237H97.4972C97.1695 41.1237 96.8685 41.3149 96.7136 41.6212L95.0415 44.9296L94.186 35.8018C94.1435 35.3482 93.8014 34.9917 93.3731 34.9549C92.9449 34.918 92.5531 35.2114 92.4423 35.6519L89.59 46.9892L88.5769 41.8731C88.4905 41.4364 88.1274 41.1237 87.7068 41.1237H83.5785L81.7061 32.7262C81.612 32.3041 81.2587 32.0044 80.8499 32Z" fill="#FAFAFA"/>
</g>
<defs>
<clipPath id="clip0_1_14">
<rect width="128" height="128" fill="white" transform="matrix(-1 0 0 1 128 0)"/>
</clipPath>
</defs>
</svg>
