<svg width="16" height="16" viewBox="0 0 16 16" fill="none" xmlns="http://www.w3.org/2000/svg">
<g clip-path="url(#clip0_1_14)">
<path d="M10.75 0C13.645 0 16 2.355 16 5.25C16 8.145 13.645 10.5 10.75 10.5C9.3875 10.5 8.1485 9.974 7.2145 9.12C7.2035 9.1395 7.1935 9.16 7.1765 9.177L6.101 10.2525C6.191 10.4045 6.242 10.5765 6.242 10.758C6.242 11.025 6.138 11.276 5.949 11.465L1.7065 15.7075C1.518 15.896 1.267 16 1 16C0.733 16 0.482 15.896 0.293 15.707C0.104 15.518 0 15.267 0 15C0 14.733 0.104 14.482 0.293 14.293L4.5355 10.0505C4.8525 9.7335 5.365 9.686 5.7455 9.901L6.823 8.8235C6.84 8.8065 6.86 8.7965 6.88 8.7855C6.026 7.8515 5.5 6.6125 5.5 5.25C5.5 2.355 7.855 0 10.75 0ZM4.889 10.404L0.6465 14.6465C0.552 14.741 0.5 14.8665 0.5 15C0.5 15.1335 0.552 15.259 0.6465 15.3535C0.836 15.542 1.164 15.542 1.3535 15.3535L5.596 11.111C5.69 11.0165 5.7425 10.891 5.7425 10.7575C5.7425 10.624 5.6905 10.4985 5.596 10.404C5.5015 10.31 5.376 10.2575 5.2425 10.2575C5.109 10.2575 4.984 10.3095 4.889 10.404ZM10.75 10C13.369 10 15.5 7.869 15.5 5.25C15.5 2.631 13.369 0.5 10.75 0.5C8.131 0.5 6 2.631 6 5.25C6 7.869 8.131 10 10.75 10Z" fill="#FAFAFA"/>
<path d="M10.75 1.5C12.818 1.5 14.5 3.182 14.5 5.25C14.5 7.318 12.818 9 10.75 9C8.682 9 7 7.318 7 5.25C7 3.182 8.682 1.5 10.75 1.5ZM10.75 8.5C12.542 8.5 14 7.042 14 5.25C14 3.458 12.542 2 10.75 2C8.958 2 7.5 3.458 7.5 5.25C7.5 7.042 8.958 8.5 10.75 8.5Z" fill="#FAFAFA"/>
<path fill-rule="evenodd" clip-rule="evenodd" d="M10.1062 4.00001C10.0551 3.99946 10.0103 4.03596 9.9975 4.08846L9.6793 5.39684L9.56366 4.4714C9.55703 4.41838 9.51762 4.37674 9.46763 4.36993C9.41764 4.36313 9.3696 4.39286 9.35057 4.44238L9.14037 4.98952H8.61114C8.54976 4.98952 8.5 5.10744 8.5 5.10744C8.5 5.10744 8.54976 5.22537 8.61114 5.22537H9.21508C9.26026 5.22537 9.30094 5.19635 9.318 5.15196L9.39835 4.94281L9.53403 6.0286C9.54103 6.08456 9.5844 6.12741 9.6375 6.13081C9.6906 6.13422 9.73853 6.09722 9.75182 6.04257L10.1004 4.60912L10.2513 5.28554C10.2631 5.33874 10.3079 5.37631 10.3594 5.37631H10.8731L11.0771 6.40632C11.0877 6.45975 11.1314 6.49849 11.1829 6.49996C11.2343 6.50142 11.28 6.46524 11.2932 6.41249L11.6125 5.14345L11.6951 6.02477C11.7 6.07641 11.736 6.11862 11.784 6.12876C11.832 6.13889 11.8805 6.11457 11.9036 6.06883L12.2537 5.37631H13V5.14046H12.1871C12.1462 5.14046 12.1086 5.16436 12.0892 5.20265L11.8802 5.61621L11.7733 4.47523C11.7679 4.41852 11.7252 4.37396 11.6716 4.36936C11.6181 4.36475 11.5691 4.40143 11.5553 4.45648L11.1987 5.87364L11.0721 5.23414C11.0613 5.17955 11.0159 5.14046 10.9634 5.14046H10.4473L10.2133 4.09077C10.2015 4.03801 10.1573 4.00055 10.1062 4.00001Z" fill="#FAFAFA"/>
</g>
<defs>
<clipPath id="clip0_1_14">
<rect width="16" height="16" fill="white" transform="matrix(-1 0 0 1 16 0)"/>
</clipPath>
</defs>
</svg>
