<svg width="32" height="32" viewBox="0 0 32 32" fill="none" xmlns="http://www.w3.org/2000/svg">
<g clip-path="url(#clip0_1_14)">
<path d="M21.5 0C27.29 0 32 4.71 32 10.5C32 16.29 27.29 21 21.5 21C18.775 21 16.297 19.948 14.429 18.24C14.407 18.279 14.387 18.32 14.353 18.354L12.202 20.505C12.382 20.809 12.484 21.153 12.484 21.516C12.484 22.05 12.276 22.552 11.898 22.93L3.413 31.415C3.036 31.792 2.534 32 2 32C1.466 32 0.964 31.792 0.586 31.414C0.208 31.036 0 30.534 0 30C0 29.466 0.208 28.964 0.586 28.586L9.071 20.101C9.705 19.467 10.73 19.372 11.491 19.802L13.646 17.647C13.68 17.613 13.72 17.593 13.76 17.571C12.052 15.703 11 13.225 11 10.5C11 4.71 15.71 0 21.5 0ZM9.778 20.808L1.293 29.293C1.104 29.482 1 29.733 1 30C1 30.267 1.104 30.518 1.293 30.707C1.672 31.084 2.328 31.084 2.707 30.707L11.192 22.222C11.38 22.033 11.485 21.782 11.485 21.515C11.485 21.248 11.381 20.997 11.192 20.808C11.003 20.62 10.752 20.515 10.485 20.515C10.218 20.515 9.968 20.619 9.778 20.808ZM21.5 20C26.738 20 31 15.738 31 10.5C31 5.262 26.738 1 21.5 1C16.262 1 12 5.262 12 10.5C12 15.738 16.262 20 21.5 20Z" fill="#FAFAFA"/>
<path d="M21.5 3C25.636 3 29 6.364 29 10.5C29 14.636 25.636 18 21.5 18C17.364 18 14 14.636 14 10.5C14 6.364 17.364 3 21.5 3ZM21.5 17C25.084 17 28 14.084 28 10.5C28 6.916 25.084 4 21.5 4C17.916 4 15 6.916 15 10.5C15 14.084 17.916 17 21.5 17Z" fill="#FAFAFA"/>
<path fill-rule="evenodd" clip-rule="evenodd" d="M20.2125 8.00001C20.1103 7.99892 20.0205 8.07191 19.995 8.17692L19.3586 10.7937L19.1273 8.94279C19.1141 8.83677 19.0352 8.75348 18.9353 8.73986C18.8353 8.72625 18.7392 8.78573 18.7011 8.88476L18.2807 9.97904H17.2223C17.0995 9.97904 17 10.2149 17 10.2149C17 10.2149 17.0995 10.4507 17.2223 10.4507H18.4302C18.5205 10.4507 18.6019 10.3927 18.636 10.3039L18.7967 9.88562L19.0681 12.0572C19.0821 12.1691 19.1688 12.2548 19.275 12.2616C19.3812 12.2684 19.4771 12.1944 19.5036 12.0851L20.2009 9.21823L20.5025 10.5711C20.5262 10.6775 20.6158 10.7526 20.7188 10.7526H21.7463L22.1542 12.8126C22.1754 12.9195 22.2629 12.997 22.3657 12.9999C22.4686 13.0028 22.5599 12.9305 22.5865 12.825L23.225 10.2869L23.3902 12.0495C23.3999 12.1528 23.4721 12.2372 23.568 12.2575C23.6639 12.2778 23.7611 12.2291 23.8073 12.1377L24.5073 10.7526H26V10.2809H24.3743C24.2924 10.2809 24.2171 10.3287 24.1784 10.4053L23.7604 11.2324L23.5465 8.95046C23.5359 8.83704 23.4503 8.74792 23.3433 8.73872C23.2362 8.72951 23.1383 8.80285 23.1106 8.91296L22.3975 11.7473L22.1442 10.4683C22.1226 10.3591 22.0319 10.2809 21.9267 10.2809H20.8946L20.4265 8.18155C20.403 8.07601 20.3147 8.00111 20.2125 8.00001Z" fill="#FAFAFA"/>
</g>
<defs>
<clipPath id="clip0_1_14">
<rect width="32" height="32" fill="white" transform="matrix(-1 0 0 1 32 0)"/>
</clipPath>
</defs>
</svg>
