<svg width="48" height="48" viewBox="0 0 48 48" fill="none" xmlns="http://www.w3.org/2000/svg">
<g clip-path="url(#clip0_1_14)">
<path d="M32.25 0C40.935 0 48 7.065 48 15.75C48 24.435 40.935 31.5 32.25 31.5C28.1625 31.5 24.4455 29.922 21.6435 27.36C21.6105 27.4185 21.5805 27.48 21.5295 27.531L18.303 30.7575C18.573 31.2135 18.726 31.7295 18.726 32.274C18.726 33.075 18.414 33.828 17.847 34.395L5.1195 47.1225C4.554 47.688 3.801 48 3 48C2.199 48 1.446 47.688 0.879001 47.121C0.312001 46.554 0 45.801 0 45C0 44.199 0.312001 43.446 0.879001 42.879L13.6065 30.1515C14.5575 29.2005 16.095 29.058 17.2365 29.703L20.469 26.4705C20.52 26.4195 20.58 26.3895 20.64 26.3565C18.078 23.5545 16.5 19.8375 16.5 15.75C16.5 7.065 23.565 0 32.25 0ZM14.667 31.212L1.9395 43.9395C1.656 44.223 1.5 44.5995 1.5 45C1.5 45.4005 1.656 45.777 1.9395 46.0605C2.508 46.626 3.492 46.626 4.0605 46.0605L16.788 33.333C17.07 33.0495 17.2275 32.673 17.2275 32.2725C17.2275 31.872 17.0715 31.4955 16.788 31.212C16.5045 30.93 16.128 30.7725 15.7275 30.7725C15.327 30.7725 14.952 30.9285 14.667 31.212ZM32.25 30C40.107 30 46.5 23.607 46.5 15.75C46.5 7.893 40.107 1.5 32.25 1.5C24.393 1.5 18 7.893 18 15.75C18 23.607 24.393 30 32.25 30Z" fill="#FAFAFA"/>
<path d="M32.25 4.5C38.454 4.5 43.5 9.546 43.5 15.75C43.5 21.954 38.454 27 32.25 27C26.046 27 21 21.954 21 15.75C21 9.546 26.046 4.5 32.25 4.5ZM32.25 25.5C37.626 25.5 42 21.126 42 15.75C42 10.374 37.626 6 32.25 6C26.874 6 22.5 10.374 22.5 15.75C22.5 21.126 26.874 25.5 32.25 25.5Z" fill="#FAFAFA"/>
<path fill-rule="evenodd" clip-rule="evenodd" d="M30.3187 12C30.1654 11.9984 30.0308 12.1079 29.9925 12.2654L29.0379 16.1905L28.691 13.4142C28.6711 13.2552 28.5529 13.1302 28.4029 13.1098C28.2529 13.0894 28.1088 13.1786 28.0517 13.3271L27.4211 14.9686H25.8334C25.6493 14.9686 25.5 15.3223 25.5 15.3223C25.5 15.3223 25.6493 15.6761 25.8334 15.6761H27.6453C27.7808 15.6761 27.9028 15.589 27.954 15.4559L28.195 14.8284L28.6021 18.0858C28.6231 18.2537 28.7532 18.3822 28.9125 18.3924C29.0718 18.4027 29.2156 18.2917 29.2555 18.1277L30.3013 13.8274L30.7538 15.8566C30.7894 16.0162 30.9237 16.1289 31.0782 16.1289H32.6194L33.2313 19.219C33.263 19.3793 33.3943 19.4955 33.5486 19.4999C33.7029 19.5043 33.8399 19.3957 33.8797 19.2375L34.8375 15.4303L35.0853 18.0743C35.0999 18.2292 35.2081 18.3559 35.352 18.3863C35.4959 18.4167 35.6416 18.3437 35.7109 18.2065L36.761 16.1289H39V15.4214H36.5614C36.4386 15.4214 36.3257 15.4931 36.2676 15.608L35.6406 16.8486L35.3198 13.4257C35.3038 13.2556 35.1755 13.1219 35.0149 13.1081C34.8543 13.0943 34.7074 13.2043 34.6659 13.3694L33.5962 17.6209L33.2163 15.7024C33.1839 15.5386 33.0478 15.4214 32.8901 15.4214H31.342L30.6398 12.2723C30.6045 12.114 30.472 12.0017 30.3187 12Z" fill="#FAFAFA"/>
</g>
<defs>
<clipPath id="clip0_1_14">
<rect width="48" height="48" fill="white" transform="matrix(-1 0 0 1 48 0)"/>
</clipPath>
</defs>
</svg>
