<svg width="64" height="64" viewBox="0 0 64 64" fill="none" xmlns="http://www.w3.org/2000/svg">
<g clip-path="url(#clip0_1_14)">
<path d="M43 0C54.58 0 64 9.42 64 21C64 32.58 54.58 42 43 42C37.55 42 32.594 39.896 28.858 36.48C28.814 36.558 28.774 36.64 28.706 36.708L24.404 41.01C24.764 41.618 24.968 42.306 24.968 43.032C24.968 44.1 24.552 45.104 23.796 45.86L6.826 62.83C6.072 63.584 5.068 64 4 64C2.932 64 1.928 63.584 1.172 62.828C0.416001 62.072 0 61.068 0 60C0 58.932 0.416001 57.928 1.172 57.172L18.142 40.202C19.41 38.934 21.46 38.744 22.982 39.604L27.292 35.294C27.36 35.226 27.44 35.186 27.52 35.142C24.104 31.406 22 26.45 22 21C22 9.42 31.42 0 43 0ZM19.556 41.616L2.586 58.586C2.208 58.964 2 59.466 2 60C2 60.534 2.208 61.036 2.586 61.414C3.344 62.168 4.656 62.168 5.414 61.414L22.384 44.444C22.76 44.066 22.97 43.564 22.97 43.03C22.97 42.496 22.762 41.994 22.384 41.616C22.006 41.24 21.504 41.03 20.97 41.03C20.436 41.03 19.936 41.238 19.556 41.616ZM43 40C53.476 40 62 31.476 62 21C62 10.524 53.476 2 43 2C32.524 2 24 10.524 24 21C24 31.476 32.524 40 43 40Z" fill="#FAFAFA"/>
<path d="M43 6C51.272 6 58 12.728 58 21C58 29.272 51.272 36 43 36C34.728 36 28 29.272 28 21C28 12.728 34.728 6 43 6ZM43 34C50.168 34 56 28.168 56 21C56 13.832 50.168 8 43 8C35.832 8 30 13.832 30 21C30 28.168 35.832 34 43 34Z" fill="#FAFAFA"/>
<path fill-rule="evenodd" clip-rule="evenodd" d="M40.4249 16C40.2205 15.9978 40.0411 16.1438 39.99 16.3538L38.7172 21.5874L38.2546 17.8856C38.2281 17.6735 38.0705 17.507 37.8705 17.4797C37.6706 17.4525 37.4784 17.5715 37.4023 17.7695L36.5615 19.9581H34.4445C34.199 19.9581 34 20.4298 34 20.4298C34 20.4298 34.199 20.9015 34.4445 20.9015H36.8603C37.0411 20.9015 37.2038 20.7854 37.272 20.6078L37.5934 19.7712L38.1361 24.1144C38.1641 24.3382 38.3376 24.5096 38.55 24.5232C38.7624 24.5369 38.9541 24.3889 39.0073 24.1703L40.4017 18.4365L41.005 21.1421C41.0525 21.3549 41.2315 21.5052 41.4376 21.5052H43.4926L44.3084 25.6253C44.3507 25.839 44.5258 25.994 44.7315 25.9998C44.9372 26.0057 45.1199 25.861 45.173 25.65L46.4501 20.5738L46.7805 24.0991C46.7998 24.3056 46.9441 24.4745 47.136 24.515C47.3278 24.5556 47.5221 24.4583 47.6146 24.2753L49.0146 21.5052H52V20.5618H48.7486C48.5848 20.5618 48.4342 20.6574 48.3568 20.8106L47.5208 22.4648L47.093 17.9009C47.0718 17.6741 46.9007 17.4958 46.6866 17.4774C46.4725 17.459 46.2766 17.6057 46.2211 17.8259L44.795 23.4946L44.2885 20.9366C44.2452 20.7182 44.0637 20.5618 43.8534 20.5618H41.7893L40.8531 16.3631C40.806 16.152 40.6293 16.0022 40.4249 16Z" fill="#FAFAFA"/>
</g>
<defs>
<clipPath id="clip0_1_14">
<rect width="64" height="64" fill="white" transform="matrix(-1 0 0 1 64 0)"/>
</clipPath>
</defs>
</svg>
