<svg width="305" height="391" viewBox="0 0 305 391" fill="none" xmlns="http://www.w3.org/2000/svg">
<path d="M75.1978 148.535C67.4188 119.62 69.9819 91.9398 83.2465 65.6519C100.374 31.7076 127.911 10.4113 165.213 3.14412C228.732 -9.23075 291.271 32.3467 302.492 98.8314C312.355 157.262 274.877 219.002 209.559 232.041C188.458 236.253 167.819 234.426 147.734 226.964C143.783 225.496 141.929 226.201 139.716 229.629C114.342 268.954 88.816 308.181 63.3327 347.436C61.6094 350.091 59.5309 352.016 56.6269 353.731C52.3467 356.258 49.3988 361.113 48.745 365.863C48.2119 369.735 46.9633 372.788 44.9859 375.843C42.5421 379.618 40.0404 383.357 37.6549 387.168C35.4617 390.672 32.5621 391.366 29.1829 389.208C20.7606 383.832 12.3927 378.368 4.07104 372.837C0.855112 370.699 -0.239614 367.989 2.22314 364.371C5.78372 359.141 8.29446 352.846 12.8187 348.723C17.0362 344.88 21.5211 341.282 23.5907 336.148C34.7548 308.456 54.4787 286.044 69.6316 260.823C80.6894 242.419 92.8232 224.658 104.644 206.719C106.774 203.487 106.61 201.474 103.837 198.643C90.0522 184.569 80.5742 167.937 75.1978 148.535ZM126.512 205.975C150.31 221.615 176.245 228.044 204.503 223.451C262.594 214.007 301.79 160.707 293.769 102.351C284.691 36.3128 216.37 -5.86493 153.347 15.662C105.826 31.8936 75.3635 78.2865 80.4989 127.812C83.8742 160.363 99.4765 186.263 126.512 205.975ZM73.4698 315.02C84.5987 297.842 95.7195 280.658 106.859 263.487C115.101 250.783 123.39 238.109 131.592 225.379C132.565 223.87 134.84 221.912 132.133 220.327C126.137 216.817 120.466 212.81 114.418 208.448C88.1371 248.954 62.1784 288.965 35.867 329.518C41.4426 333.139 46.6405 336.349 51.6506 339.829C54.7141 341.958 56.5055 341.345 58.4207 338.252C63.1509 330.614 68.1668 323.153 73.4698 315.02ZM27.0026 362.552C23.9962 360.931 21.5261 358.274 17.7822 357.585C16.2321 359.912 14.7679 362.119 13.2934 364.319C12.3438 365.736 12.0658 367.062 13.7573 368.152C19.5787 371.905 25.4008 375.657 31.5929 379.647C33.7867 376.131 35.6843 373.089 37.8205 369.665C34.2046 367.291 30.9038 365.124 27.0026 362.552ZM32.917 339.807C24.2742 349.823 24.2748 349.822 35.0795 356.758C36.0537 357.384 37.013 358.032 37.9818 358.666C39.4636 359.635 40.7775 359.596 41.7796 357.978C43.6736 354.918 46.0744 352.142 47.3477 348.263C42.9168 345.064 38.4791 341.995 32.917 339.807Z" fill="white"/>
<path d="M143.757 40.6556C197.108 11.9998 259.962 39.7443 273.675 98.2511C284.787 145.665 254.299 194.407 204.584 204.393C167.924 211.757 128.179 193.231 109.905 160.696C90.2982 125.79 97.8756 78.7252 128.153 52.0323C132.909 47.8392 137.835 43.8767 143.757 40.6556ZM110.626 136.912C121.788 177.449 158.924 201.795 199.893 195.816C240.035 189.956 272.961 150.654 265.798 105.368C258.834 61.342 217.213 31.5582 173.554 39.5668C128.272 47.873 99.9765 91.146 110.626 136.912Z" fill="white"/>
<path d="M136.459 127.237C131.518 127.277 127.021 127.314 122.524 127.281C119.339 127.258 116.852 126.134 116.743 122.513C116.625 118.62 119.616 117.415 122.475 117.954C132.304 119.805 136.827 114.965 138.758 106.153C139.11 104.547 140.019 103.072 140.525 101.49C141.312 99.0239 142.832 97.2701 145.458 97.2507C148.141 97.231 149.472 99.2062 150.38 101.535C153.343 109.131 156.339 116.714 159.365 124.285C160.091 126.1 160.543 128.091 162.686 129.938C165.462 122.96 168.133 116.242 170.808 109.527C171.855 106.899 172.889 104.264 173.972 101.651C174.886 99.4444 175.945 97.2424 178.787 97.2575C181.807 97.2735 183.009 99.5337 183.964 101.941C185.499 105.808 187.33 109.593 188.458 113.576C189.885 118.613 193.682 117.689 197.267 117.853C200.69 118.009 203.153 117.499 204.575 113.598C208.45 102.97 212.785 92.5092 216.99 82.0035C218.032 79.4005 218.881 76.3283 222.444 76.2798C226.029 76.2309 226.923 79.2791 227.971 81.8883C232.123 92.2341 236.386 102.541 240.242 112.998C241.647 116.806 243.753 118.232 247.65 117.868C250.122 117.636 252.651 117.766 255.133 117.976C257.734 118.195 259.709 119.692 259.802 122.34C259.904 125.272 257.8 127.019 255.057 127.147C249.907 127.385 244.736 127.287 239.577 127.171C236.651 127.105 235.344 125.035 234.364 122.532C231.27 114.628 228.064 106.768 224.911 98.8876C224.301 97.365 223.963 95.7019 222.103 94.0937C218.498 103.069 214.677 111.687 211.608 120.566C209.829 125.715 206.987 127.823 201.672 127.37C198.199 127.074 194.658 127.06 191.189 127.371C186.024 127.834 183 125.738 181.584 120.797C181.105 119.125 180.755 117.205 178.729 115.834C176.384 118.726 175.574 122.308 174.234 125.597C171.849 131.454 169.575 137.355 167.296 143.254C166.357 145.687 165.201 148.023 162.238 148.066C159.246 148.11 158.043 145.753 157.095 143.347C153.447 134.085 149.81 124.819 146.056 115.268C141.806 118.768 143.333 126.056 136.459 127.237Z" fill="white"/>
</svg>
